<svg xmlns="http://www.w3.org/2000/svg" width="960" height="720" viewBox="0 0 960 720" role="img" aria-labelledby="title desc">
  <title id="title">GitDB runtime architecture map</title>
  <desc id="desc">Application code talks to a local GitDB runtime, which writes transaction logs and visible snapshots before syncing durable state to a GitHub repository.</desc>
  <rect width="960" height="720" fill="#fdf8ed"/>
  <rect x="42" y="42" width="876" height="636" rx="8" fill="#f5f1e8" stroke="#171716" stroke-width="2"/>
  <text x="82" y="96" fill="#171716" font-family="Inter, Arial, sans-serif" font-size="34" font-weight="800">GitDB Runtime</text>
  <text x="82" y="130" fill="#5a5348" font-family="Inter, Arial, sans-serif" font-size="18">local hot path with auditable GitHub storage</text>

  <g transform="translate(82 190)">
    <rect width="190" height="112" rx="8" fill="#171716"/>
    <text x="24" y="43" fill="#fff9ee" font-family="Inter, Arial, sans-serif" font-size="20" font-weight="800">App code</text>
    <text x="24" y="74" fill="#e8dcc7" font-family="Inter, Arial, sans-serif" font-size="15">ORM repository</text>
    <text x="24" y="96" fill="#e8dcc7" font-family="Inter, Arial, sans-serif" font-size="15">SQL engine API</text>
  </g>

  <path d="M286 246H402" fill="none" stroke="#2d6b5f" stroke-width="6" stroke-linecap="round"/>
  <path d="M392 230l24 16-24 16z" fill="#2d6b5f"/>

  <g transform="translate(420 164)">
    <rect width="232" height="164" rx="8" fill="#2d6b5f"/>
    <text x="26" y="44" fill="#fff9ee" font-family="Inter, Arial, sans-serif" font-size="22" font-weight="800">Local engine</text>
    <text x="26" y="78" fill="#dbe9e3" font-family="Inter, Arial, sans-serif" font-size="15">serialized transactions</text>
    <text x="26" y="104" fill="#dbe9e3" font-family="Inter, Arial, sans-serif" font-size="15">query execution</text>
    <text x="26" y="130" fill="#dbe9e3" font-family="Inter, Arial, sans-serif" font-size="15">snapshot checkpoints</text>
  </g>

  <path d="M536 342V424" fill="none" stroke="#cf4d34" stroke-width="6" stroke-linecap="round"/>
  <path d="M520 414l16 24 16-24z" fill="#cf4d34"/>

  <g transform="translate(352 450)">
    <rect width="368" height="124" rx="8" fill="#fff9ee" stroke="#171716" stroke-width="2"/>
    <text x="28" y="44" fill="#171716" font-family="Inter, Arial, sans-serif" font-size="22" font-weight="800">WAL + visible snapshot</text>
    <text x="28" y="76" fill="#5a5348" font-family="Inter, Arial, sans-serif" font-size="15">mutation log, manifest, table snapshots</text>
    <text x="28" y="100" fill="#5a5348" font-family="Inter, Arial, sans-serif" font-size="15">rollback-aware persistence boundary</text>
  </g>

  <path d="M668 246H760" fill="none" stroke="#c89b2b" stroke-width="6" stroke-linecap="round"/>
  <path d="M750 230l24 16-24 16z" fill="#c89b2b"/>

  <g transform="translate(778 176)">
    <rect width="112" height="140" rx="8" fill="#cf4d34"/>
    <text x="24" y="42" fill="#fff9ee" font-family="Inter, Arial, sans-serif" font-size="20" font-weight="800">GitHub</text>
    <text x="24" y="76" fill="#ffe4da" font-family="Inter, Arial, sans-serif" font-size="15">remote</text>
    <text x="24" y="99" fill="#ffe4da" font-family="Inter, Arial, sans-serif" font-size="15">durable</text>
    <text x="24" y="122" fill="#ffe4da" font-family="Inter, Arial, sans-serif" font-size="15">auditable</text>
  </g>

  <g transform="translate(82 402)">
    <rect width="196" height="172" rx="8" fill="#fff9ee" stroke="#cbbda6" stroke-width="2"/>
    <text x="22" y="44" fill="#171716" font-family="Inter, Arial, sans-serif" font-size="20" font-weight="800">Why faster</text>
    <rect x="24" y="70" width="132" height="18" rx="4" fill="#8d8171"/>
    <rect x="24" y="102" width="154" height="18" rx="4" fill="#cf4d34"/>
    <rect x="24" y="134" width="86" height="18" rx="4" fill="#2d6b5f"/>
    <text x="24" y="166" fill="#5a5348" font-family="Inter, Arial, sans-serif" font-size="14">less snapshot rewrite work</text>
  </g>
</svg>
